<?xml version="1.0" standalone="no"?>
<!DOCTYPE svg PUBLIC "-//W3C//DTD SVG 20010904//EN"
 "http://www.w3.org/TR/2001/REC-SVG-20010904/DTD/svg10.dtd">
<svg version="1.0" xmlns="http://www.w3.org/2000/svg"
 width="983.000000pt" height="342.000000pt" viewBox="0 0 983.000000 342.000000"
 preserveAspectRatio="xMidYMid meet">
<metadata>
Created by potrace 1.14, written by Peter Selinger 2001-2017
</metadata>
<g transform="translate(0.000000,342.000000) scale(0.100000,-0.100000)"
fill="#000000" stroke="none">
<path d="M2275 3413 c-13 -4 4 -12 55 -27 44 -13 104 -41 146 -68 85 -55 107
-63 134 -48 16 9 20 19 18 43 -3 35 -44 69 -107 88 -41 12 -215 21 -246 12z"/>
<path d="M2075 3365 c128 -26 179 -43 292 -96 186 -85 298 -179 607 -507 110
-118 159 -142 219 -111 30 16 37 28 37 67 0 112 -210 306 -484 446 -195 99
-456 186 -653 215 -123 19 -133 10 -18 -14z"/>
<path d="M4478 3263 c-36 -38 -104 -111 -149 -164 -46 -52 -166 -187 -265
-300 -100 -112 -226 -256 -281 -319 l-100 -115 -106 3 c-119 4 -122 3 -214
-71 -68 -55 -78 -69 -63 -97 17 -32 45 -40 144 -40 53 0 96 -2 96 -5 0 -8
-354 -478 -425 -565 -85 -103 -155 -201 -155 -217 0 -7 11 -20 24 -28 23 -15
28 -15 78 6 83 35 101 52 196 182 135 186 309 421 392 530 l74 97 122 0 c76 0
166 7 239 20 64 11 137 20 161 20 42 0 43 -1 50 -37 15 -89 55 -246 69 -273
17 -32 98 -74 129 -66 10 2 30 0 44 -5 36 -14 71 -3 83 25 8 18 5 41 -15 107
-15 46 -33 125 -40 174 l-13 90 46 42 c25 22 42 45 38 50 -5 4 -27 13 -50 19
l-42 10 0 225 c1 226 11 343 46 544 10 61 19 126 19 145 0 41 -23 80 -48 80
-10 0 -47 -30 -84 -67z m-138 -354 c-28 -96 -52 -268 -57 -418 l-6 -164 -186
7 c-102 4 -196 9 -207 12 -19 5 7 42 219 304 133 165 243 298 244 296 1 -1 -2
-18 -7 -37z"/>
<path d="M1671 3154 c-60 -50 -33 -150 44 -170 62 -15 134 54 120 116 -17 76
-104 105 -164 54z"/>
<path d="M1371 3136 c-87 -48 -50 -186 49 -186 51 0 100 49 100 99 0 75 -83
124 -149 87z"/>
<path d="M2515 3099 c28 -30 60 -81 81 -127 52 -117 57 -125 86 -141 24 -14
28 -14 47 3 37 34 24 90 -34 155 -33 36 -204 161 -221 161 -4 0 15 -23 41 -51z"/>
<path d="M2003 3110 c-38 -23 -53 -48 -53 -90 0 -65 47 -113 110 -113 114 0
151 156 50 208 -39 20 -68 19 -107 -5z"/>
<path d="M1101 3034 c-30 -21 -51 -71 -44 -107 7 -38 57 -77 98 -77 41 0 91
39 98 77 11 60 -39 123 -98 123 -17 0 -41 -7 -54 -16z"/>
<path d="M2321 2925 c-61 -52 -62 -137 -1 -189 40 -33 80 -40 124 -22 66 27
95 111 61 176 -32 62 -129 80 -184 35z"/>
<path d="M895 2898 c-32 -17 -45 -39 -45 -79 0 -90 128 -108 161 -23 13 35
-12 91 -46 104 -33 12 -45 12 -70 -2z"/>
<path d="M7420 2833 c-23 -8 -79 -64 -101 -100 -16 -26 -28 -33 -52 -33 -55
-1 -121 -20 -146 -43 -22 -21 -111 -140 -111 -149 0 -2 32 -2 70 0 39 2 70 1
70 -3 0 -19 -80 -109 -138 -157 -36 -29 -70 -57 -76 -63 -6 -6 -36 -29 -66
-51 -104 -77 -152 -91 -185 -54 -28 31 -8 75 92 198 48 58 52 79 24 113 -18
22 -18 23 7 44 24 21 24 22 8 47 -38 58 -111 60 -264 7 -177 -62 -350 -175
-409 -266 -25 -39 -56 -68 -116 -108 -110 -74 -167 -74 -167 -1 0 47 49 122
145 225 l87 93 -6 45 c-7 56 -12 63 -39 63 -27 0 -74 -38 -233 -187 -138 -130
-220 -196 -286 -229 -61 -31 -68 -30 -68 6 0 53 26 96 82 138 60 44 155 144
171 180 15 33 -12 52 -73 52 -116 0 -282 -188 -297 -336 -3 -30 -10 -54 -15
-54 -5 0 -45 -37 -89 -82 l-80 -83 47 95 c25 52 79 156 120 231 41 75 74 147
74 161 0 29 -40 106 -69 132 -21 19 -38 16 -196 -40 -185 -65 -393 -244 -475
-408 -40 -80 -40 -128 1 -168 28 -28 34 -30 81 -25 57 7 170 64 257 130 31 24
61 46 68 50 7 4 -26 -70 -72 -165 -116 -240 -296 -735 -281 -774 5 -14 16 -16
63 -11 31 3 62 12 69 19 7 7 37 74 67 148 155 382 208 469 432 718 2 2 11 -13
20 -33 23 -46 50 -65 96 -65 43 0 98 37 197 134 l63 61 -16 -50 c-24 -81 -20
-131 14 -166 55 -54 118 -33 282 96 109 86 129 97 129 70 0 -48 89 -155 128
-155 24 0 97 47 207 133 50 38 95 74 101 79 7 5 -2 -30 -18 -78 -32 -92 -31
-121 2 -154 29 -29 69 -25 134 15 53 32 212 151 246 185 9 8 35 31 60 50 33
26 42 30 36 15 -57 -135 -67 -194 -41 -244 44 -85 168 -56 358 84 48 36 89 65
91 65 2 0 6 -16 9 -35 12 -71 72 -125 139 -125 46 1 99 27 205 104 51 36 94
66 98 66 3 0 5 -9 5 -20 0 -54 72 -143 127 -156 70 -18 205 29 333 116 69 47
274 209 370 293 45 39 67 53 72 44 4 -7 8 -45 8 -85 0 -85 -21 -137 -74 -177
l-33 -25 -58 30 c-40 21 -65 28 -83 24 -35 -8 -72 -49 -72 -78 0 -38 42 -88
100 -119 49 -26 63 -28 130 -25 94 4 150 30 288 129 94 68 102 76 102 107 0
37 4 38 -83 -20 -87 -59 -156 -88 -207 -87 l-45 0 35 26 c85 65 148 139 166
197 18 57 18 59 -5 174 -25 121 -36 142 -79 142 -31 0 -81 -50 -88 -90 -8 -36
-108 -132 -273 -260 -162 -126 -282 -180 -404 -180 -54 0 -62 3 -93 34 -39 39
-42 63 -13 100 18 23 173 146 183 146 2 0 7 -11 10 -25 7 -29 39 -49 66 -40
26 8 113 105 133 148 36 75 13 137 -50 137 -64 0 -205 -62 -309 -136 -100 -70
-145 -133 -159 -216 -5 -32 -14 -42 -63 -73 -137 -86 -252 -78 -252 19 0 19
29 53 114 138 115 113 140 153 119 187 -6 10 -27 17 -56 19 -61 4 -116 -25
-187 -98 -65 -66 -104 -129 -122 -194 -11 -42 -19 -51 -69 -82 -105 -63 -168
-88 -195 -75 -55 25 -23 156 75 299 41 61 62 72 143 72 38 0 95 54 136 128
l33 61 -46 6 c-25 4 -45 9 -45 12 0 2 11 19 24 36 31 42 37 62 23 76 -11 11
-70 14 -97 4z m-2160 -270 c0 -5 -35 -55 -78 -113 -113 -151 -231 -254 -316
-276 -26 -6 -28 -5 -21 17 15 50 98 160 174 231 91 86 241 173 241 141z m1375
-134 c-135 -141 -334 -289 -370 -275 -10 4 -15 20 -15 51 0 60 42 106 146 162
69 36 241 102 269 103 5 0 -9 -19 -30 -41z"/>
<path d="M7845 2801 c-65 -40 -95 -94 -74 -133 16 -31 28 -38 66 -38 54 0 123
74 123 134 0 53 -58 72 -115 37z"/>
<path d="M745 2748 c-53 -28 -62 -93 -19 -127 35 -28 69 -26 99 4 40 39 32 96
-16 120 -33 18 -38 18 -64 3z"/>
<path d="M2603 2671 c-41 -26 -63 -69 -63 -121 0 -56 26 -96 77 -121 138 -67
259 110 150 219 -45 45 -114 55 -164 23z"/>
<path d="M2765 2296 c-37 -16 -82 -68 -91 -102 -10 -39 2 -100 25 -132 45 -64
144 -79 209 -34 69 50 82 164 26 224 -51 54 -111 70 -169 44z"/>
<path d="M2775 1875 c-72 -25 -125 -116 -110 -188 22 -100 115 -161 208 -136
77 20 127 85 127 166 0 80 -49 142 -127 162 -51 13 -49 13 -98 -4z"/>
<path d="M4025 1759 c-49 -5 -142 -17 -205 -27 -112 -19 -115 -19 -128 -1 -18
26 -47 24 -69 -5 -15 -18 -31 -24 -77 -28 -42 -3 -63 -10 -72 -23 -17 -24 -17
-83 0 -113 11 -22 7 -34 -50 -140 -35 -64 -70 -120 -79 -124 -8 -5 -15 -21
-15 -36 0 -16 -45 -112 -105 -222 -140 -261 -172 -384 -126 -487 34 -74 126
-102 281 -83 112 14 253 53 362 100 152 65 203 119 194 202 -5 50 -34 116 -60
137 -21 18 -46 -2 -46 -35 0 -13 -9 -33 -20 -44 -55 -55 -280 -139 -442 -165
-122 -20 -168 -20 -168 0 0 18 112 237 186 365 l50 84 229 34 c165 24 272 34
378 35 134 2 149 4 159 21 14 25 -6 116 -32 144 -39 41 -183 41 -472 -2 -81
-12 -148 -19 -148 -16 0 3 26 46 58 96 l59 90 174 24 c96 13 246 26 334 29
l160 6 3 39 c4 46 -22 123 -46 135 -27 14 -170 19 -267 10z"/>
<path d="M9705 1363 c-45 -44 -104 -133 -175 -266 l-52 -97 -25 20 c-14 11
-36 20 -49 20 -45 0 -198 -63 -272 -113 -81 -54 -128 -111 -153 -185 -15 -44
-20 -49 -100 -90 -137 -70 -246 -74 -277 -9 -21 44 -9 72 37 86 22 6 80 31
128 56 143 71 223 170 197 243 -14 40 -49 54 -122 48 -163 -14 -346 -163 -389
-317 -16 -57 -17 -59 -85 -94 -47 -25 -78 -35 -101 -33 -28 3 -32 7 -35 36 -4
45 31 101 112 182 72 70 82 101 51 160 -19 36 -31 38 -140 23 -124 -17 -123
-17 -118 10 3 14 -2 29 -11 36 -13 11 -23 9 -60 -13 -81 -47 -156 -149 -156
-213 0 -7 9 -21 21 -31 l20 -20 -67 -55 c-172 -143 -379 -194 -422 -104 -21
44 -9 72 37 86 22 6 80 31 128 56 143 71 223 170 197 243 -14 40 -49 54 -122
48 -160 -13 -332 -151 -386 -309 -21 -61 -22 -62 -61 -64 -23 -2 -48 3 -58 11
-17 13 -16 18 26 79 64 93 78 174 39 220 -20 23 -32 22 -75 -10 -76 -58 -157
-185 -157 -246 0 -28 -9 -43 -50 -81 -62 -58 -94 -74 -115 -56 -9 8 -13 21
-10 34 12 43 70 164 122 255 30 51 52 99 49 107 -3 7 -21 16 -41 20 -36 6 -36
6 -195 -158 -94 -98 -188 -185 -230 -213 -82 -57 -97 -53 -86 20 6 36 15 53
44 78 161 142 232 223 232 268 0 34 -25 50 -80 51 -52 1 -89 -24 -186 -124
-83 -85 -113 -132 -133 -205 -8 -30 -20 -47 -39 -57 -38 -19 -102 -31 -102
-18 0 5 14 40 31 76 41 87 45 163 11 199 -20 21 -21 25 -7 37 22 18 19 36 -12
60 -24 19 -36 21 -89 17 -149 -14 -325 -128 -377 -246 -30 -69 -30 -190 1
-253 34 -69 73 -93 147 -92 68 0 122 24 183 78 31 28 45 34 85 34 29 1 71 11
103 26 57 26 58 26 68 -16 8 -34 50 -85 87 -103 64 -34 111 -14 221 93 l77 75
-6 -50 c-14 -125 62 -189 157 -132 19 12 72 53 118 92 l83 70 35 -16 c43 -21
79 -21 133 -2 32 11 43 12 45 2 2 -7 9 -31 15 -54 14 -50 66 -99 116 -109 115
-21 302 77 510 269 87 81 101 90 158 103 34 8 72 16 84 19 19 4 15 -5 -28 -61
-59 -78 -84 -125 -93 -177 -14 -77 33 -147 99 -147 41 0 110 37 201 106 39 30
74 54 76 54 3 0 8 -18 12 -40 8 -49 55 -105 103 -121 78 -25 190 11 338 111
42 28 78 50 79 48 1 -1 9 -18 16 -37 20 -51 58 -91 86 -91 40 0 93 33 185 113
l85 74 -4 -81 c-4 -72 -2 -84 18 -108 17 -22 30 -28 61 -28 56 0 97 20 220
106 102 72 109 79 109 110 l0 34 -68 -44 c-132 -84 -163 -95 -191 -67 -25 25
-27 68 -7 136 17 55 48 107 199 335 150 225 168 268 129 303 -30 27 -65 21
-107 -20z m-2009 -388 c13 -33 -97 -131 -191 -171 l-36 -15 21 41 c26 52 88
112 143 139 50 25 56 26 63 6z m1140 0 c13 -33 -97 -131 -191 -171 l-36 -15
21 41 c26 52 88 112 143 139 50 25 56 26 63 6z m-2778 -142 c-30 -62 -39 -117
-26 -165 7 -23 4 -29 -25 -46 -43 -27 -88 -35 -120 -23 -23 9 -27 16 -27 48 0
48 29 110 66 145 26 24 156 108 161 104 1 -1 -12 -29 -29 -63z m3352 61 c0
-22 -53 -85 -119 -141 -89 -76 -155 -117 -176 -109 -21 8 -19 50 5 96 23 45
74 78 195 127 83 34 95 37 95 27z"/>
<path d="M961 1295 c-99 -22 -185 -68 -254 -134 -34 -33 -70 -74 -81 -92 l-19
-32 104 -101 c201 -196 460 -333 750 -398 88 -19 131 -23 279 -22 277 1 426
29 632 120 105 46 100 49 -32 19 -133 -30 -250 -7 -369 71 -31 21 -110 94
-176 163 -289 303 -336 340 -500 391 -92 28 -247 35 -334 15z"/>
<path d="M5245 1131 c-55 -25 -69 -44 -61 -83 19 -101 19 -100 -27 -208 -25
-58 -116 -251 -202 -430 -105 -216 -158 -337 -159 -360 -1 -33 1 -35 29 -33
51 2 157 38 167 57 5 9 7 29 3 44 -6 28 38 125 128 278 l41 72 61 5 c70 7 174
37 263 77 47 22 62 34 62 49 0 12 -7 21 -15 21 -8 0 18 32 59 70 85 81 116
140 124 237 6 85 -11 113 -71 113 -79 0 -200 -80 -307 -203 -27 -32 -50 -56
-50 -54 0 2 18 42 39 88 69 148 89 237 59 267 -17 17 -97 13 -143 -7z m319
-278 c-1 -48 -63 -153 -121 -203 -30 -27 -40 -30 -103 -30 -47 0 -70 4 -70 12
0 42 125 180 216 238 63 40 79 36 78 -17z"/>
<path d="M4615 1093 c-63 -34 -220 -172 -307 -271 -41 -46 -58 -53 -58 -23 0
40 32 105 75 153 25 28 44 56 42 62 -7 24 -72 46 -126 44 l-55 -3 -37 -91
c-20 -50 -57 -135 -83 -189 -25 -54 -46 -112 -46 -129 0 -21 -10 -44 -30 -66
-16 -19 -29 -43 -30 -52 0 -37 100 -111 128 -94 5 3 41 52 80 108 127 184 277
358 308 358 29 0 12 -57 -71 -235 -28 -62 -44 -108 -41 -121 6 -23 73 -74 97
-74 19 0 44 28 91 100 67 105 271 320 303 320 18 0 4 -43 -53 -157 -56 -110
-69 -165 -49 -197 24 -36 63 -39 123 -10 68 32 81 48 59 70 -24 24 -14 56 72
235 40 86 75 169 76 184 2 24 -4 31 -35 43 -20 8 -47 12 -60 8 -35 -9 -150
-99 -265 -209 -68 -65 -108 -96 -114 -90 -7 7 12 54 55 136 36 70 66 135 66
145 0 45 -68 71 -115 45z"/>
</g>
</svg>
